# xmcd
#
# Track frame offsets:
#	150
#	39127
#	61394
#	92751
#	125888
#	153800
#	175874
#	215764
#	242111
#	271358
#	302587
# Disc length: 4328 seconds
# Revision: 2
# Processed by: cddbd v1.5.1PL0 Copyright (c) Steve Scherf et al.
#
# Submitted via: libkcddb 0.10
#
DISCID=9410e60b
DTITLE=Sharin - Land of Dreams - 4 - New Energy
DYEAR=1900
DGENRE=New Age
TTITLE0=Musical Mission
TTITLE1=Seaside
TTITLE2=Peace of Mind
TTITLE3=Spiritual Journey
TTITLE4=Morning Memory
TTITLE5=Born Again
TTITLE6=Joy
TTITLE7=Peaceful Paradise
TTITLE8=Grateful Me
TTITLE9=New Energy
TTITLE10=Oriental Power
EXTD=
EXTT0=
EXTT1=
EXTT2=
EXTT3=
EXTT4=
EXTT5=
EXTT6=
EXTT7=
EXTT8=
EXTT9=
EXTT10=
PLAYORDER=
